<?xml version="1.0" encoding="utf-8"?>
<!-- Generator: Adobe Illustrator 16.0.0, SVG Export Plug-In . SVG Version: 6.00 Build 0)  -->
<!DOCTYPE svg PUBLIC "-//W3C//DTD SVG 1.1//EN" "http://www.w3.org/Graphics/SVG/1.1/DTD/svg11.dtd">
<svg version="1.1" id="Layer_1" xmlns="http://www.w3.org/2000/svg" xmlns:xlink="http://www.w3.org/1999/xlink" x="0px" y="0px"
	 width="96px" height="96px" viewBox="0 0 96 96" enable-background="new 0 0 96 96" xml:space="preserve">
<g>
	<path d="M48.045,95c-0.017,0-0.041,0-0.066,0c-4.062,0-8.093-0.734-11.983-1.768c-1.068-0.283-1.703-1.482-1.419-2.55
		c0.283-1.068,1.38-1.755,2.447-1.471c3.561,0.946,7.254,1.4,10.976,1.4l0.133-0.008c1.104,0,1.956,1.094,1.956,2.198
		S49.149,95,48.045,95z M59.577,93.07c-0.883,0-1.691-0.59-1.931-1.483c-0.286-1.066,0.347-2.163,1.414-2.449
		c3.586-0.962,7.037-2.396,10.258-4.262c0.956-0.554,2.18-0.228,2.733,0.728c0.554,0.956,0.228,2.18-0.728,2.733
		c-3.524,2.042-7.303,3.611-11.229,4.664C59.923,93.048,59.748,93.07,59.577,93.07z M25.753,88.65c-0.339,0-0.683-0.086-0.998-0.268
		c-3.519-2.029-6.765-4.517-9.649-7.392c-0.782-0.779-0.784-2.046-0.004-2.828c0.779-0.782,2.045-0.785,2.829-0.004
		c2.638,2.629,5.606,4.903,8.824,6.759c0.957,0.552,1.285,1.775,0.733,2.731C27.118,88.292,26.445,88.65,25.753,88.65z
		 M79.542,81.514c-0.512,0-1.023-0.195-1.413-0.585c-0.782-0.78-0.782-2.047-0.002-2.828c2.633-2.636,4.91-5.602,6.769-8.817
		c0.553-0.956,1.776-1.284,2.732-0.73c0.956,0.553,1.283,1.776,0.73,2.732c-2.033,3.517-4.523,6.761-7.401,9.642
		C80.566,81.318,80.054,81.514,79.542,81.514z M9.418,72.36c-0.689,0-1.36-0.356-1.731-0.995c-2.045-3.522-3.619-7.299-4.675-11.224
		c-0.287-1.066,0.345-2.164,1.411-2.451c1.065-0.287,2.164,0.345,2.451,1.412c0.965,3.585,2.403,7.035,4.272,10.253
		c0.555,0.956,0.23,2.18-0.725,2.734C10.105,72.273,9.759,72.36,9.418,72.36z M91.082,61.534c-0.171,0-0.344-0.022-0.517-0.068
		c-1.067-0.285-1.495-1.382-1.21-2.448C90.311,55.443,91,51.737,91,48v-0.181c0-1.104,0.896-2,2-2s2,0.896,2,2V48
		c0,4.085-0.736,8.14-1.779,12.049C92.98,60.943,91.966,61.534,91.082,61.534z M3.207,50.045C2.102,50.045,1,49.195,1,48.09V48
		c0-4.052,0.728-8.076,1.756-11.959c0.283-1.067,1.48-1.703,2.549-1.421c1.067,0.283,1.756,1.378,1.473,2.446
		C5.838,40.614,5.284,44.293,5.284,48C5.284,49.104,4.311,50.045,3.207,50.045z M91.032,38.292c-0.881,0-1.688-0.586-1.929-1.477
		c-0.974-3.584-2.418-7.031-4.294-10.245c-0.557-0.954-0.234-2.179,0.72-2.736c0.953-0.557,2.179-0.233,2.735,0.719
		c2.053,3.518,3.634,7.291,4.698,11.214c0.29,1.066-0.34,2.165-1.405,2.454C91.382,38.269,91.205,38.292,91.032,38.292z
		 M9.325,27.795c-0.338,0-0.681-0.086-0.996-0.267c-0.958-0.551-1.287-1.773-0.736-2.731c2.027-3.522,4.511-6.771,7.382-9.656
		c0.779-0.784,2.046-0.786,2.828-0.007c0.783,0.779,0.786,2.045,0.007,2.828c-2.626,2.639-4.897,5.61-6.75,8.83
		C10.69,27.435,10.018,27.795,9.325,27.795z M79.417,18.362c-0.51,0-1.02-0.193-1.409-0.581c-2.643-2.624-5.615-4.892-8.837-6.742
		c-0.958-0.55-1.288-1.772-0.738-2.73c0.549-0.958,1.77-1.289,2.73-0.739c3.523,2.022,6.774,4.503,9.663,7.373
		c0.784,0.778,0.788,2.045,0.01,2.828C80.445,18.166,79.931,18.362,79.417,18.362z M25.602,11.44c-0.689,0-1.359-0.356-1.73-0.994
		c-0.556-0.955-0.232-2.179,0.722-2.735c3.521-2.05,7.295-3.626,11.219-4.687c1.066-0.29,2.165,0.343,2.452,1.409
		c0.288,1.066-0.343,2.164-1.409,2.452c-3.584,0.968-7.032,2.409-10.25,4.282C26.29,11.352,25.943,11.44,25.602,11.44z
		 M59.404,6.885c-0.169,0-0.34-0.228-0.512-0.273C55.358,5.679,51.694,5,48,5h-0.136c-1.104,0-2-0.896-2-2s0.896-2,2-2h0.114
		c4.06,0,8.069,0.724,11.936,1.745c1.067,0.282,1.705,1.479,1.423,2.547C61.101,6.188,60.291,6.885,59.404,6.885z"/>
</g>
<circle cx="48" cy="48" r="33.293"/>
</svg>
